<svg xmlns="http://www.w3.org/2000/svg" viewBox="0 0 650 150.78"><defs><style>.cls-1{fill:#8728d1;}.cls-2{fill:#fff;}</style></defs><g id="Layer_2" data-name="Layer 2"><g id="Layer_1-2" data-name="Layer 1"><polygon class="cls-1" points="64.59 65.36 32.32 65.36 0 97.69 0 130.04 96.86 130.04 129.18 97.69 129.18 65.34 96.86 65.34 64.59 97.61 64.59 65.36"/><polygon class="cls-1" points="129.18 0.66 32.32 0.66 0 33.01 0 65.36 32.32 65.36 64.59 33.08 64.59 65.34 96.86 65.34 129.18 33.01 129.18 0.66"/><polygon class="cls-2" points="171.73 39.05 223.11 39.05 171.73 102.33 171.73 115.12 261.41 115.12 261.41 91.67 212 91.67 261.55 29 261.55 15.57 171.73 15.57 171.73 39.05"/><path class="cls-2" d="M347.77,74.54c0-24.38-18.35-38.26-41.34-38.26-24.55,0-43.21,15.42-43.21,40,0,24.7,19,40.59,43,40.59,21.91,0,32.27-9.41,38.9-21.77l-20.23-8.47c-2.78,5.83-8.79,10-17.28,10-10.48,0-17.43-6.16-19-15.89h59.1Zm-57.7-8.34c2.76-6.77,8.64-10.94,16.51-10.94,8,0,13.25,4.31,15.11,10.94Z"/><path class="cls-2" d="M450.61,36.27c-29.64,0-43.22,21.59-43.22,40.91,0,23.44,19.78,39.47,43.22,39.47,23.76,0,42.89-16,42.89-39.34,0-19.28-13.24-41-42.89-41m0,57.55c-11.11,0-18.06-7.85-18.06-17.43S439.35,59,450.61,59s17.88,7.83,17.88,17.56-6.77,17.29-17.88,17.29"/><path class="cls-2" d="M534.68,27.79l-.15,10h23.71V61H534.53v54.18h-25V61H495V37.81H509.7V23.44C509.7,8.62,519.57,0,534.4,0h23.84V21.77H540.85c-3.68,0-6.17,2.31-6.17,6"/><polygon class="cls-2" points="623.92 37.8 603.4 97.38 586.58 37.8 560.33 37.8 583.16 115.12 598.91 115.12 588.11 150.78 612.34 150.78 650 37.8 623.92 37.8"/><polygon class="cls-2" points="369.22 37.8 356.03 37.8 356.03 115.12 380.86 115.12 380.86 59.55 405.86 59.55 405.86 37.79 369.22 37.79 369.22 37.8"/></g></g></svg>